<svg xmlns="http://www.w3.org/2000/svg" height="48" viewBox="0 -960 960 960" width="48"><path fill="#A3A3A3" d="M797.043-101.217 530.662-367.478q-30.314 24.261-70.295 37.717-39.981 13.457-85.19 13.457-115.002 0-193.285-78.398-78.283-78.397-78.283-190.848 0-112.45 78.397-190.733 78.398-78.282 190.848-78.282 112.45 0 190.733 78.364t78.283 190.917q0 44.98-13.218 83.784-13.217 38.804-39.522 73.674l268.261 266.261-60.348 60.348ZM373.206-399.479q78.491 0 131.99-53.824 53.499-53.824 53.499-131.899t-53.494-132.132q-53.493-54.057-131.907-54.057-79.247 0-132.879 54.057-53.632 54.057-53.632 132.132t53.549 131.899q53.549 53.824 132.874 53.824Z"/></svg>
